{
  "accessors": [
    {
      "bufferView": 3,
      "componentType": 5126,
      "count": 569,
      "max": [
        9.50267219543457,
        55.038516998291016,
        20.75025749206543
      ],
      "min": [
        -9.424324035644531,
        4.202276229858398,
        4.20820426940918
      ],
      "type": "VEC3"
    },
    {
      "bufferView": 3,
      "byteOffset": 6828,
      "componentType": 5126,
      "count": 569,
      "max": [
        0.9723253846168518,
        1.0,
        0.9562993049621582
      ],
      "min": [
        -0.9731881022453308,
        -0.9867854118347168,
        -0.9999881982803345
      ],
      "type": "VEC3"
    },
    {
      "bufferView": 2,
      "componentType": 5126,
      "count": 569,
      "max": [
        0.9882100224494934,
        0.9954890012741089
      ],
      "min": [
        0.4144569933414459,
        0.010573029518127441
      ],
      "type": "VEC2"
    },
    {
      "bufferView": 1,
      "componentType": 5125,
      "count": 699,
      "type": "SCALAR"
    },
    {
      "bufferView": 5,
      "componentType": 5126,
      "count": 26,
      "max": [
        1.0,
        0.9473402500152588,
        0.45309972763061523,
        0.0,
        0.9121338725090027,
        1.0,
        0.9999830722808838,
        0.0,
        0.3771289587020874,
        0.5051798224449158,
        1.0,
        0.0,
        55.45185852050781,
        15.444931030273438,
        9.879792213439941,
        1.0
      ],
      "min": [
        0.09187544882297516,
        -0.9200676679611206,
        -0.48394128680229187,
        0.0,
        -0.9579580426216125,
        -6.122550075815525e-07,
        -0.40989261865615845,
        0.0,
        -0.27179932594299316,
        -0.9999818205833435,
        3.627761179814115e-05,
        0.0,
        -54.6269645690918,
        -49.33772659301758,
        -54.77580642700195,
        1.0
      ],
      "type": "MAT4"
    },
    {
      "bufferView": 0,
      "componentType": 5123,
      "count": 569,
      "type": "VEC4"
    },
    {
      "bufferView": 4,
      "componentType": 5126,
      "count": 569,
      "max": [
        1.0,
        0.47183701395988464,
        0.26754507422447205,
        0.0
      ],
      "min": [
        0.3997974991798401,
        0.0,
        0.0,
        0.0
      ],
      "type": "VEC4"
    }
  ],
  "asset": {
    "extras": {
      "author": "ᴹᴿ°᭄☆£V∆N☆ (https://sketchfab.com/Evan.Gio)",
      "license": "CC-BY-4.0 (http://creativecommons.org/licenses/by/4.0/)",
      "source": "https://sketchfab.com/3d-models/tentacle-1-e3ed8098c1244f29ac6d65843cac2fae",
      "title": "tentacle 1"
    },
    "generator": "Sketchfab-15.87.0",
    "version": "2.0"
  },
  "bufferViews": [
    {
      "buffer": 0,
      "byteLength": 4552,
      "byteStride": 8,
      "name": "shortBufferViews",
      "target": 34962
    },
    {
      "buffer": 0,
      "byteLength": 2796,
      "byteOffset": 4552,
      "name": "floatBufferViews",
      "target": 34963
    },
    {
      "buffer": 0,
      "byteLength": 4552,
      "byteOffset": 7348,
      "byteStride": 8,
      "name": "floatBufferViews",
      "target": 34962
    },
    {
      "buffer": 0,
      "byteLength": 13656,
      "byteOffset": 11900,
      "byteStride": 12,
      "name": "floatBufferViews",
      "target": 34962
    },
    {
      "buffer": 0,
      "byteLength": 9104,
      "byteOffset": 25556,
      "byteStride": 16,
      "name": "floatBufferViews",
      "target": 34962
    },
    {
      "buffer": 0,
      "byteLength": 1664,
      "byteOffset": 34660,
      "name": "floatBufferViews"
    }
  ],
  "buffers": [
    {
      "byteLength": 36324,
      "uri": "scene.bin"
    }
  ],
  "images": [
    {
      "uri": "textures/DocOcMechShader_DocOcBody_baseColor.png"
    }
  ],
  "materials": [
    {
      "doubleSided": true,
      "name": "DocOcMechShader_DocOcBody",
      "pbrMetallicRoughness": {
        "baseColorTexture": {
          "index": 0
        },
        "metallicFactor": 0.0,
        "roughnessFactor": 0.9577051494623774
      }
    }
  ],
  "meshes": [
    {
      "name": "mesh0_DocOcMechShader_DocOcBody_0",
      "primitives": [
        {
          "attributes": {
            "JOINTS_0": 5,
            "NORMAL": 1,
            "POSITION": 0,
            "TEXCOORD_0": 2,
            "TEXCOORD_1": 2,
            "TEXCOORD_2": 2,
            "WEIGHTS_0": 6
          },
          "indices": 3,
          "material": 0,
          "mode": 4
        }
      ]
    }
  ],
  "nodes": [
    {
      "children": [
        1
      ],
      "matrix": [
        2.220446049250313e-16,
        1.0,
        -6.123232939436859e-17,
        0.0,
        -4.440892098500626e-16,
        -6.123232939436859e-17,
        -1.0,
        0.0,
        -1.0,
        2.220446049250312e-16,
        4.440892098500626e-16,
        0.0,
        0.0,
        0.0,
        0.0,
        1.0
      ],
      "name": "Sketchfab_model"
    },
    {
      "children": [
        2
      ],
      "matrix": [
        0.009999999776482582,
        0.0,
        0.0,
        0.0,
        0.0,
        0.0,
        0.009999999776482582,
        0.0,
        0.0,
        -0.009999999776482582,
        0.0,
        0.0,
        0.0,
        0.0,
        0.0,
        1.0
      ],
      "name": "74b74a5d1ecb4dc086e9a1b6203ef5e1.fbx"
    },
    {
      "children": [
        3
      ],
      "name": "RootNode"
    },
    {
      "children": [
        4,
        6,
        5
      ],
      "name": "Object_3"
    },
    {
      "children": [
        7
      ],
      "name": "_rootJoint"
    },
    {
      "matrix": [
        1.0,
        0.0,
        0.0,
        0.0,
        0.0,
        0.9999999999999999,
        0.0,
        0.0,
        0.0,
        0.0,
        0.9999999999999999,
        0.0,
        0.0,
        8.881784197001252e-16,
        1.7763568394002505e-15,
        1.0
      ],
      "name": "Object_5"
    },
    {
      "mesh": 0,
      "name": "Object_6",
      "skin": 0
    },
    {
      "children": [
        8
      ],
      "name": "Bone_00",
      "rotation": [
        -0.006910446099936962,
        -0.0,
        0.0,
        0.9999762177467346
      ],
      "translation": [
        0.0,
        4.219361782073975,
        15.532638549804688
      ]
    },
    {
      "children": [
        9
      ],
      "name": "Bone.001_01",
      "rotation": [
        -0.005183978471904993,
        -0.0,
        0.0,
        0.9999865889549255
      ],
      "translation": [
        0.0,
        3.2508749961853027,
        -1.9073486328125e-06
      ]
    },
    {
      "children": [
        10
      ],
      "name": "Bone.002_02",
      "rotation": [
        0.046613600105047226,
        0.0,
        0.0,
        0.9989129900932312
      ],
      "translation": [
        0.0,
        3.4337329864501953,
        9.5367431640625e-07
      ]
    },
    {
      "children": [
        11
      ],
      "name": "Bone.003_03",
      "rotation": [
        -0.06531448662281036,
        -0.0,
        0.0,
        0.997864842414856
      ],
      "translation": [
        0.0,
        2.9414443969726563,
        -1.9073486328125e-06
      ]
    },
    {
      "children": [
        12
      ],
      "name": "Bone.004_04",
      "rotation": [
        0.06426718086004257,
        0.0,
        0.0,
        0.9979327321052551
      ],
      "scale": [
        1.0,
        0.9999998807907104,
        0.9999998807907104
      ],
      "translation": [
        0.0,
        2.9954833984375,
        -1.9073486328125e-06
      ]
    },
    {
      "children": [
        13
      ],
      "name": "Bone.005_05",
      "rotation": [
        -0.0656033605337143,
        -0.0,
        0.0,
        0.9978457689285278
      ],
      "scale": [
        1.0,
        0.9999999403953552,
        0.9999999403953552
      ],
      "translation": [
        0.0,
        3.0335044860839844,
        0.0
      ]
    },
    {
      "children": [
        14
      ],
      "name": "Bone.006_06",
      "rotation": [
        0.05519643798470497,
        0.0,
        0.0,
        0.9984756112098694
      ],
      "scale": [
        1.0,
        0.9999998807907104,
        0.9999998807907104
      ],
      "translation": [
        0.0,
        3.014484405517578,
        1.9073486328125e-06
      ]
    },
    {
      "children": [
        15
      ],
      "name": "Bone.007_07",
      "rotation": [
        -0.05376506596803665,
        -0.0,
        0.0,
        0.9985536336898804
      ],
      "scale": [
        1.0,
        0.9999999403953552,
        0.9999999403953552
      ],
      "translation": [
        0.0,
        3.002218246459961,
        2.86102294921875e-06
      ]
    },
    {
      "children": [
        16
      ],
      "name": "Bone.008_08",
      "rotation": [
        0.06236948445439339,
        0.0,
        0.0,
        0.9980531334877014
      ],
      "translation": [
        0.0,
        3.0046939849853516,
        0.0
      ]
    },
    {
      "children": [
        17
      ],
      "name": "Bone.009_09",
      "rotation": [
        -0.05254329741001129,
        -0.0,
        0.0,
        0.9986186623573303
      ],
      "scale": [
        1.0,
        0.9999999403953552,
        0.9999999403953552
      ],
      "translation": [
        0.0,
        3.060527801513672,
        0.0
      ]
    },
    {
      "children": [
        18
      ],
      "name": "Bone.010_010",
      "rotation": [
        0.03415285423398018,
        0.0,
        0.0,
        0.9994166493415833
      ],
      "translation": [
        0.0,
        2.8723392486572266,
        1.9073486328125e-06
      ]
    },
    {
      "children": [
        19
      ],
      "name": "Bone.011_011",
      "rotation": [
        -0.024136658757925034,
        -0.0,
        0.0,
        0.9997087717056274
      ],
      "scale": [
        1.0,
        1.0000001192092896,
        1.0000001192092896
      ],
      "translation": [
        0.0,
        3.1293182373046875,
        9.5367431640625e-07
      ]
    },
    {
      "children": [
        20
      ],
      "name": "Bone.012_012",
      "rotation": [
        0.037647102028131485,
        0.0,
        0.0,
        0.9992911219596863
      ],
      "scale": [
        1.0,
        1.0000001192092896,
        1.0000001192092896
      ],
      "translation": [
        0.0,
        2.9720420837402344,
        -1.9073486328125e-06
      ]
    },
    {
      "children": [
        21
      ],
      "name": "Bone.013_013",
      "rotation": [
        -0.049766939133405685,
        -0.0,
        0.0,
        0.9987608790397644
      ],
      "translation": [
        0.0,
        2.9294052124023438,
        1.9073486328125e-06
      ]
    },
    {
      "children": [
        22
      ],
      "name": "Bone.014_014",
      "rotation": [
        0.037054020911455154,
        0.0,
        0.0,
        0.9993133544921875
      ],
      "scale": [
        1.0,
        1.0000001192092896,
        1.0000001192092896
      ],
      "translation": [
        0.0,
        3.1305999755859375,
        0.0
      ]
    },
    {
      "children": [
        23,
        26,
        29
      ],
      "name": "Bone.015_015",
      "rotation": [
        -0.032407328486442566,
        -0.0,
        0.0,
        0.9994747638702393
      ],
      "scale": [
        1.0,
        1.0000001192092896,
        1.0000001192092896
      ],
      "translation": [
        0.0,
        3.007904052734375,
        9.5367431640625e-07
      ]
    },
    {
      "children": [
        24
      ],
      "name": "Bone.016_016",
      "rotation": [
        0.296366810798645,
        -0.018882879987359047,
        0.6475754976272583,
        0.7017521858215332
      ],
      "scale": [
        1.0000001192092896,
        0.9999998807907104,
        1.0000001192092896
      ],
      "translation": [
        0.0,
        3.5627708435058594,
        1.9073486328125e-06
      ]
    },
    {
      "children": [
        25
      ],
      "name": "Bone.017_017",
      "rotation": [
        0.053467366844415665,
        -1.6793795509784104e-07,
        -0.02402704954147339,
        0.9982805848121643
      ],
      "scale": [
        1.0,
        0.9999998211860657,
        1.0000001192092896
      ],
      "translation": [
        3.814697265625e-06,
        1.6511797904968262,
        -9.5367431640625e-07
      ]
    },
    {
      "name": "Bone.018_018",
      "rotation": [
        -0.05274498090147972,
        6.0911723267054185e-05,
        -0.11850874871015549,
        0.9915511012077332
      ],
      "scale": [
        0.9999999403953552,
        0.9999998211860657,
        1.0000001192092896
      ],
      "translation": [
        0.0,
        3.646538734436035,
        9.5367431640625e-07
      ]
    },
    {
      "children": [
        27
      ],
      "name": "Bone.019_019",
      "rotation": [
        0.2276240587234497,
        -2.554408524702012e-07,
        -0.6738414168357849,
        0.7029402852058411
      ],
      "scale": [
        1.000000238418579,
        1.0000001192092896,
        1.0000001192092896
      ],
      "translation": [
        0.0,
        3.5627708435058594,
        1.9073486328125e-06
      ]
    },
    {
      "children": [
        28
      ],
      "name": "Bone.020_020",
      "rotation": [
        0.09736130386590958,
        8.5403808469664e-09,
        0.029159728437662125,
        0.9948218464851379
      ],
      "scale": [
        1.0000004768371582,
        1.0000003576278687,
        1.0000001192092896
      ],
      "translation": [
        7.105427357601002e-15,
        1.7289762496948242,
        0.0
      ]
    },
    {
      "name": "Bone.021_021",
      "rotation": [
        -0.04776126146316528,
        0.0011678608134388924,
        0.13039134442806244,
        0.9903108477592468
      ],
      "scale": [
        1.0000004768371582,
        1.0000003576278687,
        1.0
      ],
      "translation": [
        3.814697265625e-06,
        3.653261184692383,
        -9.5367431640625e-07
      ]
    },
    {
      "children": [
        30
      ],
      "name": "Bone.022_022",
      "rotation": [
        -0.6940005421638489,
        1.168471399637383e-07,
        0.004183568991720676,
        0.7199622988700867
      ],
      "scale": [
        1.0,
        1.0,
        1.0000001192092896
      ],
      "translation": [
        0.0,
        3.5627708435058594,
        1.9073486328125e-06
      ]
    },
    {
      "children": [
        31
      ],
      "name": "Bone.023_023",
      "rotation": [
        0.057696640491485596,
        -0.0003894153342116624,
        -0.007067246828228235,
        0.9983090758323669
      ],
      "scale": [
        1.0,
        1.0000001192092896,
        1.0000001192092896
      ],
      "translation": [
        -1.4901161193847656e-08,
        2.205845832824707,
        -7.105427357601002e-15
      ]
    },
    {
      "name": "Bone.024_024",
      "rotation": [
        0.02778581716120243,
        0.00014876357454340905,
        0.0008712021517567337,
        0.9996135234832764
      ],
      "scale": [
        0.9999999403953552,
        1.0000001192092896,
        1.0000001192092896
      ],
      "translation": [
        -1.1102230246251565e-16,
        3.585183620452881,
        0.0
      ]
    }
  ],
  "samplers": [
    {
      "magFilter": 9729,
      "minFilter": 9987,
      "wrapS": 10497,
      "wrapT": 10497
    }
  ],
  "scene": 0,
  "scenes": [
    {
      "name": "Sketchfab_Scene",
      "nodes": [
        0
      ]
    }
  ],
  "skins": [
    {
      "inverseBindMatrices": 4,
      "joints": [
        4,
        7,
        8,
        9,
        10,
        11,
        12,
        13,
        14,
        15,
        16,
        17,
        18,
        19,
        20,
        21,
        22,
        23,
        24,
        25,
        26,
        27,
        28,
        29,
        30,
        31
      ],
      "skeleton": 4
    }
  ],
  "textures": [
    {
      "sampler": 0,
      "source": 0
    }
  ]
}
